<?xml version="1.0" encoding="UTF-8" standalone="no"?>
<!-- Created with Inkscape (http://www.inkscape.org/) -->

<svg
   xmlns:dc="http://purl.org/dc/elements/1.1/"
   xmlns:cc="http://creativecommons.org/ns#"
   xmlns:rdf="http://www.w3.org/1999/02/22-rdf-syntax-ns#"
   xmlns:svg="http://www.w3.org/2000/svg"
   xmlns="http://www.w3.org/2000/svg"
   xmlns:xlink="http://www.w3.org/1999/xlink"
   xmlns:sodipodi="http://sodipodi.sourceforge.net/DTD/sodipodi-0.dtd"
   xmlns:inkscape="http://www.inkscape.org/namespaces/inkscape"
   width="210mm"
   height="297mm"
   viewBox="0 0 210 297"
   version="1.1"
   id="svg8"
   inkscape:version="0.92.3 (2405546, 2018-03-11)"
   sodipodi:docname="SpeciFire(logo).svg">
  <defs
     id="defs2">
    <radialGradient
       inkscape:collect="always"
       xlink:href="#linearGradient2801"
       id="radialGradient2803"
       cx="-475.84167"
       cy="-164.33498"
       fx="-475.84167"
       fy="-164.33498"
       r="222.68448"
       gradientTransform="matrix(1,0,0,1.1124721,91.406178,28.639338)"
       gradientUnits="userSpaceOnUse" />
    <linearGradient
       inkscape:collect="always"
       id="linearGradient2801">
      <stop
         style="stop-color:#ffcc00;stop-opacity:1;"
         offset="0"
         id="stop2797" />
      <stop
         style="stop-color:#ffcc00;stop-opacity:0;"
         offset="1"
         id="stop2799" />
    </linearGradient>
    <radialGradient
       inkscape:collect="always"
       xlink:href="#linearGradient3148"
       id="radialGradient3150"
       cx="100.5693"
       cy="-198.08836"
       fx="100.5693"
       fy="-198.08836"
       r="117.49107"
       gradientUnits="userSpaceOnUse"
       gradientTransform="matrix(0.72014327,0,0,0.72014327,-456.55022,79.33721)" />
    <linearGradient
       inkscape:collect="always"
       id="linearGradient3148">
      <stop
         style="stop-color:#ffffff;stop-opacity:1;"
         offset="0"
         id="stop3144" />
      <stop
         style="stop-color:#ffffff;stop-opacity:0;"
         offset="1"
         id="stop3146" />
    </linearGradient>
  </defs>
  <sodipodi:namedview
     id="base"
     pagecolor="#ffffff"
     bordercolor="#666666"
     borderopacity="1.0"
     inkscape:pageopacity="0.0"
     inkscape:pageshadow="2"
     inkscape:zoom="0.35"
     inkscape:cx="-300"
     inkscape:cy="560"
     inkscape:document-units="mm"
     inkscape:current-layer="layer1"
     showgrid="false"
     inkscape:window-width="3840"
     inkscape:window-height="2035"
     inkscape:window-x="3827"
     inkscape:window-y="-13"
     inkscape:window-maximized="1" />
  <metadata
     id="metadata5">
    <rdf:RDF>
      <cc:Work
         rdf:about="">
        <dc:format>image/svg+xml</dc:format>
        <dc:type
           rdf:resource="http://purl.org/dc/dcmitype/StillImage" />
        <dc:title></dc:title>
      </cc:Work>
    </rdf:RDF>
  </metadata>
  <g
     inkscape:label="Layer 1"
     inkscape:groupmode="layer"
     id="layer1">
    <g
       id="g3159"
       transform="translate(-94.838294,203.22636)"
       inkscape:export-xdpi="170"
       inkscape:export-ydpi="170">
      <g
         id="g2809">
        <path
           style="fill:#000000;stroke:none;stroke-width:0.38012004px;stroke-linecap:butt;stroke-linejoin:miter;stroke-opacity:1"
           d="m -404.36718,-393.75746 c 0,0 4.74093,6.8095 8.8279,18.10536 -0.0492,-0.0216 -0.10491,-0.0476 -0.15349,-0.0687 a 23.056549,30.899552 0 0 1 0.71882,1.67537 c 0.80299,2.34198 1.56779,4.86164 2.25515,7.53546 a 23.056549,30.899552 0 0 1 0.0455,0.23358 c 0.0103,0.0194 0.0207,0.0395 0.031,0.0589 0.46193,1.8202 0.88788,3.70965 1.26193,5.66735 3.22482,16.87796 3.73364,31.02674 -9.09143,48.23788 -4.69284,5.10564 -10.41048,9.75955 -16.84137,13.68444 -2.63302,1.65795 -5.89684,3.45873 -9.47176,5.52886 -4.12224,2.38715 -8.80266,5.21399 -13.58934,8.66048 -22.63781,16.58884 -29.8372,37.88759 -25.62479,56.06943 2.95891,12.49515 10.79219,22.18667 18.78644,29.08246 0.0135,0.10638 0.029,0.2125 0.0429,0.31884 -24.3932,-20.18266 -29.53125,-32.88924 -35.07176,-55.59454 -4.06763,-21.34492 -1.39991,-39.56865 -1.39991,-39.56865 0,0 -15.24667,3.37159 -27.71458,21.33619 -4.78369,5.45168 -10.19233,13.83244 -14.71641,26.59009 -10.76828,30.36573 -19.62365,77.49519 -4.19563,128.00149 5.05436,16.33263 12.4973,32.194469 22.23481,46.904117 -4.29352,-0.689906 -8.44767,-1.648976 -12.43385,-2.888713 -27.57977,-8.355528 -44.82833,-29.176864 -54.45093,-48.825964 -9.49587,-19.39031 -11.5347,-35.41437 -11.5347,-35.41437 0,0 -12.5549,22.85099 -14.98462,53.40759 -1.47434,18.541579 1.25857,40.284079 9.53741,61.384885 10.64312,32.819454 33.99162,64.243144 58.85582,86.266051 23.51928,20.751839 44.85626,30.341813 58.45122,34.402035 13.7801,4.115506 20.56566,3.442168 20.56566,3.442168 0,0 -5.68391,-8.703453 -10.61434,-23.831622 -4.99327,-15.32093 -8.33657,-36.194897 -3.87779,-58.06002 0.70507,-3.542212 1.6078,-7.059998 2.6882,-10.535793 6.69734,11.24292704 15.05677,19.8720236 22.33922,25.879042 12.72048,10.492664 22.28805,14.085961 22.28805,14.085961 0,0 -5.72056,-7.308244 -10.68308,-20.0116968 -5.02576,-12.8653302 -8.39087,-30.3934862 -3.90311,-48.7541302 3.18873,-13.365556 10.34074,-26.331616 20.13003,-37.416321 3.42564,-3.105441 7.03667,-6.566689 10.70734,-10.477913 9.13035,-9.894674 16.27092,-20.728006 21.5863,-32.006836 1.39737,1.83211 2.88377,3.62679 4.46587,5.37538 3.2788,3.56306 6.48732,6.56147 9.39426,9.13898 3.35483,2.97464 6.38225,5.45062 8.78499,7.740102 11.11158,10.245629 19.46774,24.770397 22.43171,39.957249 2.84858,14.246487 0.71269,27.84719 -2.47737,37.829731 -3.14991,9.856943 -6.7815,15.527734 -6.7815,15.527734 0,0 6.07323,-2.788034 14.14746,-10.929564 7.96573,-8.032142 17.96816,-22.093129 21.08656,-42.195358 0.78572,-5.177063 1.06584,-10.565051 0.79944,-16.03778 11.46436,16.116771 19.84176,34.865794 23.61199,54.183772 5.4005,27.0092324 1.35153,52.793715 -4.69635,71.719136 -5.97177,18.687305 -12.85658,29.438514 -12.85658,29.438514 0,0 1.49721,-0.694122 4.09639,-2.273763 -0.54076,0.406889 -0.92139,0.686263 -0.92139,0.686263 0,0 9.9961,-0.906069 27.5332,-9.229929 17.30148,-8.212021 42.8338,-24.905366 65.84611,-55.345458 18.99458,-25.247685 33.77212,-57.063786 38.64261,-89.574894 5.47527,-21.516313 3.10302,-44.320015 -1.10485,-62.181735 -6.29913,-26.73863 -15.71532,-43.39787 -15.71532,-43.39787 0,0 0.0573,14.1558 -6.76031,31.56862 -6.90857,17.64521 -21.13882,36.62748 -47.09015,45.07838 -1.49868,0.49985 -3.03017,0.96046 -4.59093,1.38441 17.80864,-21.85989 26.92221,-46.95822 27.94351,-71.42871 1.42212,-37.9599 -16.12192,-68.68035 -31.5345,-87.45048 -13.50637,-16.44867 -25.20849,-24.83635 -28.1249,-26.80353 -11.05098,-9.9827 -19.23294,-14.44665 -19.23294,-14.44665 0,0 6.09357,10.51097 9.25939,27.31357 3.19193,16.94138 3.85382,30.83798 -8.64702,51.55137 0.0112,-0.15488 0.0217,-0.30954 0.0217,-0.30954 0,0 -2.72091,4.34267 -7.5246,7.63571 -5.16246,1.37543 -9.48119,0.43408 -12.92066,-1.70997 -1.83004,-1.1408 -3.39174,-2.5341 -4.70462,-3.97909 -2.01392,-3.95294 -3.01651,-7.76754 -3.28042,-11.29956 -0.34099,-4.56378 0.37239,-8.50014 1.34565,-11.57605 1.25973,-2.35493 2.38731,-4.7284 3.38067,-7.11737 0.0174,-0.0238 0.077,-0.1101 0.077,-0.1101 0,0 -0.0334,0.008 -0.0341,0.008 2.45023,-5.91619 4.08812,-11.92419 4.92064,-17.96428 4.96249,-37.934 -21.31382,-71.30232 -44.97297,-92.36024 -23.96604,-21.33108 -44.81846,-31.51799 -44.81846,-31.51799 z"
           id="path1015"
           inkscape:connector-curvature="0" />
        <path
           inkscape:connector-curvature="0"
           id="path1713"
           d="m -404.36718,-393.75746 c 0,0 4.74093,6.8095 8.8279,18.10536 -0.0492,-0.0216 -0.10491,-0.0476 -0.15349,-0.0687 a 23.056549,30.899552 0 0 1 0.71882,1.67537 c 0.80299,2.34198 1.56779,4.86164 2.25515,7.53546 a 23.056549,30.899552 0 0 1 0.0455,0.23358 c 0.0103,0.0194 0.0207,0.0395 0.031,0.0589 0.46193,1.8202 0.88788,3.70965 1.26193,5.66735 3.22482,16.87796 3.73364,31.02674 -9.09143,48.23788 -4.69284,5.10564 -10.41048,9.75955 -16.84137,13.68444 -2.63302,1.65795 -5.89684,3.45873 -9.47176,5.52886 -4.12224,2.38715 -8.80266,5.21399 -13.58934,8.66048 -22.63781,16.58884 -29.8372,37.88759 -25.62479,56.06943 2.95891,12.49515 10.79219,22.18667 18.78644,29.08246 0.0135,0.10638 0.029,0.2125 0.0429,0.31884 -24.3932,-20.18266 -29.53125,-32.88924 -35.07176,-55.59454 -4.06763,-21.34492 -1.39991,-39.56865 -1.39991,-39.56865 0,0 -15.24667,3.37159 -27.71458,21.33619 -4.78369,5.45168 -10.19233,13.83244 -14.71641,26.59009 -10.76828,30.36573 -19.62365,77.49519 -4.19563,128.00149 5.05436,16.33263 12.4973,32.194469 22.23481,46.904117 -4.29352,-0.689906 -8.44767,-1.648976 -12.43385,-2.888713 -27.57977,-8.355528 -44.82833,-29.176864 -54.45093,-48.825964 -9.49587,-19.39031 -11.5347,-35.41437 -11.5347,-35.41437 0,0 -12.5549,22.85099 -14.98462,53.40759 -1.47434,18.541579 1.25857,40.284079 9.53741,61.384885 10.64312,32.819454 33.99162,64.243144 58.85582,86.266051 23.51928,20.751839 44.85626,30.341813 58.45122,34.402035 13.7801,4.115506 20.56566,3.442168 20.56566,3.442168 0,0 -5.68391,-8.703453 -10.61434,-23.831622 -4.99327,-15.32093 -8.33657,-36.194897 -3.87779,-58.06002 0.70507,-3.542212 1.6078,-7.059998 2.6882,-10.535793 6.69734,11.24292704 15.05677,19.8720236 22.33922,25.879042 12.72048,10.492664 22.28805,14.085961 22.28805,14.085961 0,0 -5.72056,-7.308244 -10.68308,-20.0116968 -5.02576,-12.8653302 -8.39087,-30.3934862 -3.90311,-48.7541302 3.18873,-13.365556 10.34074,-26.331616 20.13003,-37.416321 3.42564,-3.105441 7.03667,-6.566689 10.70734,-10.477913 9.13035,-9.894674 16.27092,-20.728006 21.5863,-32.006836 1.39737,1.83211 2.88377,3.62679 4.46587,5.37538 3.2788,3.56306 6.48732,6.56147 9.39426,9.13898 3.35483,2.97464 6.38225,5.45062 8.78499,7.740102 11.11158,10.245629 19.46774,24.770397 22.43171,39.957249 2.84858,14.246487 0.71269,27.84719 -2.47737,37.829731 -3.14991,9.856943 -6.7815,15.527734 -6.7815,15.527734 0,0 6.07323,-2.788034 14.14746,-10.929564 7.96573,-8.032142 17.96816,-22.093129 21.08656,-42.195358 0.78572,-5.177063 1.06584,-10.565051 0.79944,-16.03778 11.46436,16.116771 19.84176,34.865794 23.61199,54.183772 5.4005,27.0092324 1.35153,52.793715 -4.69635,71.719136 -5.97177,18.687305 -12.85658,29.438514 -12.85658,29.438514 0,0 1.49721,-0.694122 4.09639,-2.273763 -0.54076,0.406889 -0.92139,0.686263 -0.92139,0.686263 0,0 9.9961,-0.906069 27.5332,-9.229929 17.30148,-8.212021 42.8338,-24.905366 65.84611,-55.345458 18.99458,-25.247685 33.77212,-57.063786 38.64261,-89.574894 5.47527,-21.516313 3.10302,-44.320015 -1.10485,-62.181735 -6.29913,-26.73863 -15.71532,-43.39787 -15.71532,-43.39787 0,0 0.0573,14.1558 -6.76031,31.56862 -6.90857,17.64521 -21.13882,36.62748 -47.09015,45.07838 -1.49868,0.49985 -3.03017,0.96046 -4.59093,1.38441 17.80864,-21.85989 26.92221,-46.95822 27.94351,-71.42871 1.42212,-37.9599 -16.12192,-68.68035 -31.5345,-87.45048 -13.50637,-16.44867 -25.20849,-24.83635 -28.1249,-26.80353 -11.05098,-9.9827 -19.23294,-14.44665 -19.23294,-14.44665 0,0 6.09357,10.51097 9.25939,27.31357 3.19193,16.94138 3.85382,30.83798 -8.64702,51.55137 0.0112,-0.15488 0.0217,-0.30954 0.0217,-0.30954 0,0 -2.72091,4.34267 -7.5246,7.63571 -5.16246,1.37543 -9.48119,0.43408 -12.92066,-1.70997 -1.83004,-1.1408 -3.39174,-2.5341 -4.70462,-3.97909 -2.01392,-3.95294 -3.01651,-7.76754 -3.28042,-11.29956 -0.34099,-4.56378 0.37239,-8.50014 1.34565,-11.57605 1.25973,-2.35493 2.38731,-4.7284 3.38067,-7.11737 0.0174,-0.0238 0.077,-0.1101 0.077,-0.1101 0,0 -0.0334,0.008 -0.0341,0.008 2.45023,-5.91619 4.08812,-11.92419 4.92064,-17.96428 4.96249,-37.934 -21.31382,-71.30232 -44.97297,-92.36024 -23.96604,-21.33108 -44.81846,-31.51799 -44.81846,-31.51799 z"
           style="fill:#ff6600;stroke:#ff0000;stroke-width:10.60000038;stroke-linecap:butt;stroke-linejoin:miter;stroke-miterlimit:4;stroke-dasharray:none;stroke-opacity:1" />
        <path
           style="fill:url(#radialGradient2803);fill-opacity:1;stroke:#ff0000;stroke-width:10.60000038;stroke-linecap:butt;stroke-linejoin:miter;stroke-miterlimit:4;stroke-dasharray:none;stroke-opacity:1"
           d="m -404.36718,-393.75746 c 0,0 4.74093,6.8095 8.8279,18.10536 -0.0492,-0.0216 -0.10491,-0.0476 -0.15349,-0.0687 a 23.056549,30.899552 0 0 1 0.71882,1.67537 c 0.80299,2.34198 1.56779,4.86164 2.25515,7.53546 a 23.056549,30.899552 0 0 1 0.0455,0.23358 c 0.0103,0.0194 0.0207,0.0395 0.031,0.0589 0.46193,1.8202 0.88788,3.70965 1.26193,5.66735 3.22482,16.87796 3.73364,31.02674 -9.09143,48.23788 -4.69284,5.10564 -10.41048,9.75955 -16.84137,13.68444 -2.63302,1.65795 -5.89684,3.45873 -9.47176,5.52886 -4.12224,2.38715 -8.80266,5.21399 -13.58934,8.66048 -22.63781,16.58884 -29.8372,37.88759 -25.62479,56.06943 2.95891,12.49515 10.79219,22.18667 18.78644,29.08246 0.0135,0.10638 0.029,0.2125 0.0429,0.31884 -24.3932,-20.18266 -29.53125,-32.88924 -35.07176,-55.59454 -4.06763,-21.34492 -1.39991,-39.56865 -1.39991,-39.56865 0,0 -15.24667,3.37159 -27.71458,21.33619 -4.78369,5.45168 -10.19233,13.83244 -14.71641,26.59009 -10.76828,30.36573 -19.62365,77.49519 -4.19563,128.00149 5.05436,16.33263 12.4973,32.194469 22.23481,46.904117 -4.29352,-0.689906 -8.44767,-1.648976 -12.43385,-2.888713 -27.57977,-8.355528 -44.82833,-29.176864 -54.45093,-48.825964 -9.49587,-19.39031 -11.5347,-35.41437 -11.5347,-35.41437 0,0 -12.5549,22.85099 -14.98462,53.40759 -1.47434,18.541579 1.25857,40.284079 9.53741,61.384885 10.64312,32.819454 33.99162,64.243144 58.85582,86.266051 23.51928,20.751839 44.85626,30.341813 58.45122,34.402035 13.7801,4.115506 20.56566,3.442168 20.56566,3.442168 0,0 -5.68391,-8.703453 -10.61434,-23.831622 -4.99327,-15.32093 -8.33657,-36.194897 -3.87779,-58.06002 0.70507,-3.542212 1.6078,-7.059998 2.6882,-10.535793 6.69734,11.24292704 15.05677,19.8720236 22.33922,25.879042 12.72048,10.492664 22.28805,14.085961 22.28805,14.085961 0,0 -5.72056,-7.308244 -10.68308,-20.0116968 -5.02576,-12.8653302 -8.39087,-30.3934862 -3.90311,-48.7541302 3.18873,-13.365556 10.34074,-26.331616 20.13003,-37.416321 3.42564,-3.105441 7.03667,-6.566689 10.70734,-10.477913 9.13035,-9.894674 16.27092,-20.728006 21.5863,-32.006836 1.39737,1.83211 2.88377,3.62679 4.46587,5.37538 3.2788,3.56306 6.48732,6.56147 9.39426,9.13898 3.35483,2.97464 6.38225,5.45062 8.78499,7.740102 11.11158,10.245629 19.46774,24.770397 22.43171,39.957249 2.84858,14.246487 0.71269,27.84719 -2.47737,37.829731 -3.14991,9.856943 -6.7815,15.527734 -6.7815,15.527734 0,0 6.07323,-2.788034 14.14746,-10.929564 7.96573,-8.032142 17.96816,-22.093129 21.08656,-42.195358 0.78572,-5.177063 1.06584,-10.565051 0.79944,-16.03778 11.46436,16.116771 19.84176,34.865794 23.61199,54.183772 5.4005,27.0092324 1.35153,52.793715 -4.69635,71.719136 -5.97177,18.687305 -12.85658,29.438514 -12.85658,29.438514 0,0 1.49721,-0.694122 4.09639,-2.273763 -0.54076,0.406889 -0.92139,0.686263 -0.92139,0.686263 0,0 9.9961,-0.906069 27.5332,-9.229929 17.30148,-8.212021 42.8338,-24.905366 65.84611,-55.345458 18.99458,-25.247685 33.77212,-57.063786 38.64261,-89.574894 5.47527,-21.516313 3.10302,-44.320015 -1.10485,-62.181735 -6.29913,-26.73863 -15.71532,-43.39787 -15.71532,-43.39787 0,0 0.0573,14.1558 -6.76031,31.56862 -6.90857,17.64521 -21.13882,36.62748 -47.09015,45.07838 -1.49868,0.49985 -3.03017,0.96046 -4.59093,1.38441 17.80864,-21.85989 26.92221,-46.95822 27.94351,-71.42871 1.42212,-37.9599 -16.12192,-68.68035 -31.5345,-87.45048 -13.50637,-16.44867 -25.20849,-24.83635 -28.1249,-26.80353 -11.05098,-9.9827 -19.23294,-14.44665 -19.23294,-14.44665 0,0 6.09357,10.51097 9.25939,27.31357 3.19193,16.94138 3.85382,30.83798 -8.64702,51.55137 0.0112,-0.15488 0.0217,-0.30954 0.0217,-0.30954 0,0 -2.72091,4.34267 -7.5246,7.63571 -5.16246,1.37543 -9.48119,0.43408 -12.92066,-1.70997 -1.83004,-1.1408 -3.39174,-2.5341 -4.70462,-3.97909 -2.01392,-3.95294 -3.01651,-7.76754 -3.28042,-11.29956 -0.34099,-4.56378 0.37239,-8.50014 1.34565,-11.57605 1.25973,-2.35493 2.38731,-4.7284 3.38067,-7.11737 0.0174,-0.0238 0.077,-0.1101 0.077,-0.1101 0,0 -0.0334,0.008 -0.0341,0.008 2.45023,-5.91619 4.08812,-11.92419 4.92064,-17.96428 4.96249,-37.934 -21.31382,-71.30232 -44.97297,-92.36024 -23.96604,-21.33108 -44.81846,-31.51799 -44.81846,-31.51799 z"
           id="path2795"
           inkscape:connector-curvature="0" />
      </g>
      <path
         id="path10-7"
         d="m -381.54579,-202.19933 a 137.45463,137.45463 0 0 0 -21.05598,1.79435 l -3.65871,26.89161 a 111.45437,111.18598 0 0 0 -22.81541,7.77419 l -19.49551,-18.94264 a 137.45463,137.45463 0 0 0 -32.07141,24.73448 l 13.36494,23.37934 a 111.45437,111.18598 0 0 0 -12.09513,17.53501 l -26.38881,-4.22693 a 137.45463,137.45463 0 0 0 -11.66453,38.660963 l 24.25789,10.984808 a 111.45437,111.18598 0 0 0 -0.36288,8.550023 111.45437,111.18598 0 0 0 0.55732,11.098452 l -24.05682,11.428465 a 137.45463,137.45463 0 0 0 12.32892,38.455366 l 26.61398,-4.751447 a 111.45437,111.18598 0 0 0 12.36829,17.113182 l -13.09389,23.965038 a 137.45463,137.45463 0 0 0 32.51945,24.13551 l 19.55015,-19.72499 a 111.45437,111.18598 0 0 0 22.54003,7.13598 l 4.29903,27.52753 a 137.45463,137.45463 0 0 0 18.35899,1.39222 137.45463,137.45463 0 0 0 22.28213,-1.98015 l 3.80513,-27.96683 a 111.45437,111.18598 0 0 0 21.53031,-7.7086 l 20.21674,19.64413 a 137.45463,137.45463 0 0 0 32.03425,-25.11467 L -295.68259,5.084551 a 111.45437,111.18598 0 0 0 10.80771,-16.018197 l 27.66963,4.430199 a 137.45463,137.45463 0 0 0 11.61647,-39.001775 l -25.33979,-11.476549 a 111.45437,111.18598 0 0 0 0.30619,-8.082355 111.45437,111.18598 0 0 0 -0.47862,-9.516067 l 25.11026,-11.928958 a 137.45463,137.45463 0 0 0 -12.34642,-38.792119 l -27.20411,4.86078 a 111.45437,111.18598 0 0 0 -11.27107,-16.22804 l 13.26654,-24.28418 a 137.45463,137.45463 0 0 0 -32.54128,-24.50935 l -19.37751,19.54804 a 111.45437,111.18598 0 0 0 -22.21657,-7.49667 l -4.25315,-27.24344 a 137.45463,137.45463 0 0 0 -19.61135,-1.5452 z m -1.82058,81.54463 a 57.411351,57.411343 0 0 1 57.41117,57.411197 57.411351,57.411343 0 0 1 -57.41117,57.410999 57.411351,57.411343 0 0 1 -57.4112,-57.410999 57.411351,57.411343 0 0 1 57.4112,-57.411197 z"
         style="fill:#808080;stroke:#000000;stroke-width:11.19462776;stroke-miterlimit:4;stroke-dasharray:none"
         inkscape:connector-curvature="0" />
      <circle
         r="79.209335"
         cy="-63.314674"
         cx="-384.12592"
         id="path2618-5"
         style="opacity:1;fill:url(#radialGradient3150);fill-opacity:1;stroke:#000000;stroke-width:10.80214882;stroke-miterlimit:4;stroke-dasharray:none;stroke-opacity:1" />
      <path
         id="rect2620-8"
         d="m -330.75008,-104.26933 a 11.928041,11.928041 0 0 0 -0.84149,0.0686 11.928041,11.928041 0 0 0 -8.22389,4.809773 l -57.85883,61.841506 -29.54058,-27.989963 a 11.928041,11.928041 0 0 0 -0.53117,-0.503309 l -0.21994,-0.208258 -0.007,0.005 a 11.928041,11.928041 0 0 0 -9.17311,-2.8259 11.928041,11.928041 0 0 0 -10.45886,13.23511 11.928041,11.928041 0 0 0 3.25707,6.873249 l -0.0281,0.02931 41.7838,39.59024 c 1.13148,1.022272 3.43645,2.937385 5.19303,2.991979 2.8941,0.164222 4.90115,-1.833261 6.07887,-3.073074 l 70.12834,-74.955268 -0.0878,-0.08199 a 11.928041,11.928041 0 0 0 2.92205,-9.279921 11.928041,11.928041 0 0 0 -12.39373,-10.527404 z"
         style="opacity:1;fill:#66ff00;fill-opacity:1;stroke:#000000;stroke-width:6.13781738;stroke-miterlimit:4;stroke-dasharray:none;stroke-opacity:1"
         inkscape:connector-curvature="0" />
    </g>
  </g>
</svg>
